<svg width="133" height="35" viewBox="0 0 133 35" fill="none" xmlns="http://www.w3.org/2000/svg">
<rect x="0.5" y="0.5" width="132" height="34" rx="9.5" fill="white" stroke="#E6E6E6"/>
<path d="M18 26C16.7613 26 15.5947 25.7633 14.5 25.29C13.4053 24.816 12.452 24.1727 11.64 23.36C10.828 22.5473 10.1847 21.594 9.71001 20.5C9.23534 19.406 8.99867 18.2393 9.00001 17C9.00001 15.7573 9.23667 14.5897 9.71001 13.497C10.184 12.4037 10.8273 11.4513 11.64 10.64C12.4527 9.82867 13.406 9.18533 14.5 8.71C15.5947 8.23667 16.7613 8 18 8C19.2427 8 20.4103 8.23667 21.503 8.71C22.5963 9.184 23.549 9.82733 24.361 10.64C25.173 11.4527 25.816 12.405 26.29 13.497C26.7633 14.5903 27 15.758 27 17C27 18.2387 26.7633 19.4053 26.29 20.5C25.816 21.5947 25.1727 22.548 24.36 23.36C23.5473 24.172 22.595 24.8153 21.503 25.29C20.411 25.7647 19.2433 26.0013 18 26ZM18 25.008C18.5867 24.254 19.0707 23.5137 19.452 22.787C19.8327 22.0603 20.1423 21.247 20.381 20.347H15.619C15.8837 21.2977 16.1997 22.1363 16.567 22.863C16.935 23.5897 17.4127 24.3047 18 25.008ZM16.727 24.858C16.2603 24.308 15.8343 23.628 15.449 22.818C15.0637 22.0087 14.777 21.1847 14.589 20.346H10.754C11.3273 21.5893 12.1397 22.6093 13.191 23.406C14.243 24.202 15.4217 24.686 16.727 24.858ZM19.273 24.858C20.5783 24.686 21.757 24.202 22.809 23.406C23.8603 22.6093 24.6727 21.5893 25.246 20.346H21.412C21.1587 21.1973 20.8397 22.0277 20.455 22.837C20.0697 23.647 19.6757 24.3213 19.273 24.858ZM10.346 19.347H14.381C14.305 18.9363 14.2517 18.5363 14.221 18.147C14.189 17.7583 14.173 17.376 14.173 17C14.173 16.624 14.1887 16.2417 14.22 15.853C14.2513 15.4643 14.3047 15.0643 14.38 14.653H10.347C10.2383 14.9997 10.1533 15.3773 10.092 15.786C10.0307 16.194 10 16.5987 10 17C10 17.4013 10.0303 17.8063 10.091 18.215C10.1517 18.6237 10.2367 19.0007 10.346 19.346M15.381 19.346H20.619C20.695 18.936 20.7483 18.5427 20.779 18.166C20.811 17.79 20.827 17.4013 20.827 17C20.827 16.5987 20.8113 16.21 20.78 15.834C20.7487 15.458 20.6953 15.0647 20.62 14.654H15.38C15.3047 15.064 15.2513 15.4573 15.22 15.834C15.1887 16.21 15.173 16.5987 15.173 17C15.173 17.4013 15.1887 17.79 15.22 18.166C15.2513 18.542 15.3057 18.9353 15.381 19.346ZM21.62 19.346H25.654C25.7627 19 25.8477 18.623 25.909 18.215C25.9697 17.8063 26 17.4013 26 17C26 16.5987 25.9697 16.1937 25.909 15.785C25.8483 15.3763 25.7633 14.9993 25.654 14.654H21.619C21.695 15.064 21.7483 15.4637 21.779 15.853C21.811 16.2423 21.827 16.6247 21.827 17C21.827 17.3753 21.8113 17.7577 21.78 18.147C21.7487 18.5363 21.6953 18.9363 21.62 19.347M21.412 13.654H25.246C24.66 12.3847 23.8573 11.3647 22.838 10.594C21.8187 9.82333 20.6303 9.333 19.273 9.123C19.7397 9.737 20.1593 10.4393 20.532 11.23C20.9047 12.02 21.198 12.828 21.412 13.654ZM15.619 13.654H20.381C20.117 12.7153 19.7913 11.8667 19.404 11.108C19.0167 10.3493 18.5487 9.644 18 8.992C17.4513 9.64333 16.9833 10.3487 16.596 11.108C16.2087 11.8673 15.8823 12.716 15.619 13.654ZM10.755 13.654H14.589C14.803 12.8287 15.0963 12.0207 15.469 11.23C15.8417 10.4393 16.2613 9.737 16.728 9.123C15.3587 9.33367 14.1673 9.827 13.154 10.603C12.1407 11.3803 11.3407 12.397 10.754 13.653" fill="url(#paint0_linear_248_353)"/>
<path d="M34.4346 12.8086L37.1387 20.5146H37.2402L39.957 12.8086H41.1631L37.7988 22H36.5928L33.2285 12.8086H34.4346ZM42.2676 22V15.1064H43.3594V22H42.2676ZM42.8135 13.9639C42.3945 13.9639 42.0518 13.6465 42.0518 13.2402C42.0518 12.834 42.3945 12.5166 42.8135 12.5166C43.2324 12.5166 43.5879 12.834 43.5879 13.2402C43.5879 13.6465 43.2324 13.9639 42.8135 13.9639ZM47.9932 22.1396C46 22.1396 44.7686 20.7305 44.7686 18.6104C44.7686 16.4902 46.0127 15.0176 47.8916 15.0176C49.3389 15.0176 50.8623 15.9062 50.8623 18.458V18.915H45.8604C45.9111 20.375 46.7617 21.1748 47.9932 21.1748C48.8184 21.1748 49.3389 20.8193 49.5928 20.3877H50.7607C50.4307 21.4287 49.415 22.1396 47.9932 22.1396ZM45.873 17.9883H49.7578C49.7578 16.833 49.0215 15.9824 47.8916 15.9824C46.6982 15.9824 45.9365 16.9219 45.873 17.9883ZM53.833 22L51.7383 15.1064H52.8936L54.3662 20.3623H54.4297L55.8896 15.1064H57.0576L58.4922 20.3369H58.5684L60.041 15.1064H61.1836L59.0889 22H58.0098L56.5117 16.7441H56.4102L54.9248 22H53.833ZM65.6523 22V15.1064H66.7441V22H65.6523ZM66.1982 13.9639C65.7793 13.9639 65.4365 13.6465 65.4365 13.2402C65.4365 12.834 65.7793 12.5166 66.1982 12.5166C66.6172 12.5166 66.9727 12.834 66.9727 13.2402C66.9727 13.6465 66.6172 13.9639 66.1982 13.9639ZM69.5752 17.8613V22H68.4834V15.1064H69.5371V16.1855H69.626C69.9561 15.4873 70.5908 15.0176 71.6445 15.0176C73.041 15.0176 73.9678 15.8682 73.9678 17.6201V22H72.876V17.6963C72.876 16.6299 72.292 15.9951 71.3145 15.9951C70.3115 15.9951 69.5752 16.668 69.5752 17.8613ZM79.1221 22V12.8086H84.6953V13.8242H80.2646V16.8965H84.4033V17.8994H80.2646V20.9844H84.7588V22H79.1221ZM87.4502 17.8613V22H86.3584V15.1064H87.4121V16.1855H87.501C87.8311 15.4873 88.4658 15.0176 89.5195 15.0176C90.916 15.0176 91.8428 15.8682 91.8428 17.6201V22H90.751V17.6963C90.751 16.6299 90.167 15.9951 89.1895 15.9951C88.1865 15.9951 87.4502 16.668 87.4502 17.8613ZM96.3877 24.7295C94.7246 24.7295 93.5947 24.0059 93.4678 22.7236H94.6104C94.7627 23.4219 95.4102 23.7773 96.3877 23.7773C97.5684 23.7773 98.292 23.2695 98.292 22.127V20.7305H98.2031C97.9746 21.1113 97.5303 21.8984 96.1973 21.8984C94.5215 21.8984 93.2646 20.6289 93.2646 18.458C93.2646 16.3379 94.4834 15.0176 96.21 15.0176C97.543 15.0176 97.9746 15.8301 98.2285 16.1982H98.3174V15.1064H99.3838V22.1904C99.3838 23.9678 98.0635 24.7295 96.3877 24.7295ZM96.3496 20.9209C97.6064 20.9209 98.3174 20.0195 98.3174 18.4961C98.3174 17.0234 97.6318 15.9951 96.3496 15.9951C95.0293 15.9951 94.3691 17.1123 94.3691 18.4961C94.3691 19.9307 95.042 20.9209 96.3496 20.9209ZM102.215 12.8086V22H101.123V12.8086H102.215ZM103.954 22V15.1064H105.046V22H103.954ZM104.5 13.9639C104.081 13.9639 103.738 13.6465 103.738 13.2402C103.738 12.834 104.081 12.5166 104.5 12.5166C104.919 12.5166 105.274 12.834 105.274 13.2402C105.274 13.6465 104.919 13.9639 104.5 13.9639ZM110.619 16.8965C110.467 16.3252 110.035 15.9443 109.223 15.9443C108.372 15.9443 107.763 16.4014 107.763 16.9854C107.763 17.4424 108.131 17.7598 108.943 17.9502L109.972 18.2041C111.203 18.4961 111.812 19.1055 111.812 20.0703C111.812 21.2637 110.835 22.1396 109.108 22.1396C107.56 22.1396 106.633 21.4541 106.455 20.1973H107.598C107.725 20.8701 108.22 21.1875 109.083 21.1875C110.061 21.1875 110.683 20.7812 110.683 20.1338C110.683 19.6514 110.34 19.3213 109.553 19.1436L108.512 18.9023C107.306 18.623 106.671 17.9629 106.671 17.0488C106.671 15.8682 107.699 15.0176 109.223 15.0176C110.645 15.0176 111.546 15.7793 111.686 16.8965H110.619ZM114.326 17.8613V22H113.234V12.8086H114.326V16.1855H114.415C114.732 15.4746 115.354 15.0176 116.446 15.0176C117.855 15.0176 118.795 15.8555 118.795 17.6201V22H117.703V17.6963C117.703 16.6172 117.106 15.9951 116.116 15.9951C115.088 15.9951 114.326 16.668 114.326 17.8613Z" fill="black"/>
<defs>
<linearGradient id="paint0_linear_248_353" x1="18" y1="8" x2="18" y2="26" gradientUnits="userSpaceOnUse">
<stop stop-color="#00AAFF"/>
<stop offset="1" stop-color="#3C72A5"/>
</linearGradient>
</defs>
</svg>
