<svg width="125" height="33" viewBox="0 0 125 33" fill="none" xmlns="http://www.w3.org/2000/svg">
<rect x="0.5" y="0.5" width="124" height="32" rx="9.5" fill="white" stroke="#E6E6E6"/>
<path d="M27 26C25.7613 26 24.5947 25.7633 23.5 25.29C22.4053 24.816 21.452 24.1727 20.64 23.36C19.828 22.5473 19.1847 21.594 18.71 20.5C18.2353 19.406 17.9987 18.2393 18 17C18 15.7573 18.2367 14.5897 18.71 13.497C19.184 12.4037 19.8273 11.4513 20.64 10.64C21.4527 9.82867 22.406 9.18533 23.5 8.71C24.5947 8.23667 25.7613 8 27 8C28.2427 8 29.4103 8.23667 30.503 8.71C31.5963 9.184 32.549 9.82733 33.361 10.64C34.173 11.4527 34.816 12.405 35.29 13.497C35.7633 14.5903 36 15.758 36 17C36 18.2387 35.7633 19.4053 35.29 20.5C34.816 21.5947 34.1727 22.548 33.36 23.36C32.5473 24.172 31.595 24.8153 30.503 25.29C29.411 25.7647 28.2433 26.0013 27 26ZM27 25.008C27.5867 24.254 28.0707 23.5137 28.452 22.787C28.8327 22.0603 29.1423 21.247 29.381 20.347H24.619C24.8837 21.2977 25.1997 22.1363 25.567 22.863C25.935 23.5897 26.4127 24.3047 27 25.008ZM25.727 24.858C25.2603 24.308 24.8343 23.628 24.449 22.818C24.0637 22.0087 23.777 21.1847 23.589 20.346H19.754C20.3273 21.5893 21.1397 22.6093 22.191 23.406C23.243 24.202 24.4217 24.686 25.727 24.858ZM28.273 24.858C29.5783 24.686 30.757 24.202 31.809 23.406C32.8603 22.6093 33.6727 21.5893 34.246 20.346H30.412C30.1587 21.1973 29.8397 22.0277 29.455 22.837C29.0697 23.647 28.6757 24.3213 28.273 24.858ZM19.346 19.347H23.381C23.305 18.9363 23.2517 18.5363 23.221 18.147C23.189 17.7583 23.173 17.376 23.173 17C23.173 16.624 23.1887 16.2417 23.22 15.853C23.2513 15.4643 23.3047 15.0643 23.38 14.653H19.347C19.2383 14.9997 19.1533 15.3773 19.092 15.786C19.0307 16.194 19 16.5987 19 17C19 17.4013 19.0303 17.8063 19.091 18.215C19.1517 18.6237 19.2367 19.0007 19.346 19.346M24.381 19.346H29.619C29.695 18.936 29.7483 18.5427 29.779 18.166C29.811 17.79 29.827 17.4013 29.827 17C29.827 16.5987 29.8113 16.21 29.78 15.834C29.7487 15.458 29.6953 15.0647 29.62 14.654H24.38C24.3047 15.064 24.2513 15.4573 24.22 15.834C24.1887 16.21 24.173 16.5987 24.173 17C24.173 17.4013 24.1887 17.79 24.22 18.166C24.2513 18.542 24.3057 18.9353 24.381 19.346ZM30.62 19.346H34.654C34.7627 19 34.8477 18.623 34.909 18.215C34.9697 17.8063 35 17.4013 35 17C35 16.5987 34.9697 16.1937 34.909 15.785C34.8483 15.3763 34.7633 14.9993 34.654 14.654H30.619C30.695 15.064 30.7483 15.4637 30.779 15.853C30.811 16.2423 30.827 16.6247 30.827 17C30.827 17.3753 30.8113 17.7577 30.78 18.147C30.7487 18.5363 30.6953 18.9363 30.62 19.347M30.412 13.654H34.246C33.66 12.3847 32.8573 11.3647 31.838 10.594C30.8187 9.82333 29.6303 9.333 28.273 9.123C28.7397 9.737 29.1593 10.4393 29.532 11.23C29.9047 12.02 30.198 12.828 30.412 13.654ZM24.619 13.654H29.381C29.117 12.7153 28.7913 11.8667 28.404 11.108C28.0167 10.3493 27.5487 9.644 27 8.992C26.4513 9.64333 25.9833 10.3487 25.596 11.108C25.2087 11.8673 24.8823 12.716 24.619 13.654ZM19.755 13.654H23.589C23.803 12.8287 24.0963 12.0207 24.469 11.23C24.8417 10.4393 25.2613 9.737 25.728 9.123C24.3587 9.33367 23.1673 9.827 22.154 10.603C21.1407 11.3803 20.3407 12.397 19.754 13.653" fill="url(#paint0_linear_250_355)"/>
<path d="M50.5664 10.543V13.9766H52.1367V14.75H50.5664V18.3477H49.6523V10.543H50.5664ZM48.6562 11.8203V12.5703H42.4453V11.8203H45.0938V10.543H46.0078V11.8203H48.6562ZM45.5508 13.1445C47.0391 13.1445 48.0469 13.9062 48.0586 15.0898C48.0469 16.2617 47.0391 17.0117 45.5508 17.0117C44.0508 17.0117 43.0312 16.2617 43.043 15.0898C43.0312 13.9062 44.0508 13.1445 45.5508 13.1445ZM45.5508 13.8711C44.5664 13.8711 43.9102 14.3516 43.9219 15.0898C43.9102 15.8281 44.5664 16.2969 45.5508 16.2852C46.5234 16.2969 47.1797 15.8281 47.1914 15.0898C47.1797 14.3516 46.5234 13.8711 45.5508 13.8711ZM51.0469 19.9531V20.7266H44.0508V17.7266H44.9531V19.9531H51.0469ZM61.0781 11.0469V11.7969C61.0781 12.5762 61.0781 13.5078 60.8203 14.7617H62.332V15.5117H57.9961V17.4336H61.1484V20.9492H60.2227V18.1953H53.7773V17.4336H57.082V15.5117H52.793V14.7617H59.8945C60.1641 13.4844 60.1641 12.5762 60.1641 11.7969H54V11.0469H61.0781ZM65.9648 11.3398C67.3828 11.3516 68.4023 12.5645 68.5547 14.5156H70.8867V10.5312H71.8008V20.9727H70.8867V15.2773H68.5664C68.4551 17.3164 67.418 18.5938 65.9648 18.5938C64.4297 18.5938 63.3516 17.1875 63.3516 14.9727C63.3516 12.7578 64.4297 11.3516 65.9648 11.3398ZM65.9648 12.1602C64.9336 12.1719 64.2305 13.2734 64.2305 14.9727C64.2305 16.6719 64.9336 17.7734 65.9648 17.7734C66.9844 17.7734 67.6992 16.6719 67.6992 14.9727C67.6992 13.2734 66.9844 12.1719 65.9648 12.1602ZM83.0742 18.8867V19.6602H73.5352V18.8867H77.8242V16.918H74.7305V13.707H80.9648V12.0664H74.707V11.3047H81.8672V14.457H75.6445V16.1562H82.1133V16.918H78.7266V18.8867H83.0742ZM96.457 18.8516V19.6133H86.918V18.8516H91.207V16.6016H88.043V11.2695H88.9688V13.1562H94.3828V11.2695H95.2852V16.6016H92.1094V18.8516H96.457ZM88.9688 15.8516H94.3828V13.9062H88.9688V15.8516ZM105.902 10.5312V20.9492H104.977V10.5312H105.902ZM102.82 11.668C102.809 14.668 101.414 17.3164 97.9219 18.9922L97.418 18.2422C100.236 16.9062 101.672 14.9082 101.883 12.418H97.8984V11.668H102.82Z" fill="black"/>
<defs>
<linearGradient id="paint0_linear_250_355" x1="27" y1="8" x2="27" y2="26" gradientUnits="userSpaceOnUse">
<stop stop-color="#00AAFF"/>
<stop offset="1" stop-color="#3C72A5"/>
</linearGradient>
</defs>
</svg>
