<svg width="16" height="16" viewBox="0 0 16 16" fill="none" xmlns="http://www.w3.org/2000/svg">
<path d="M8 1C6.54184 1.00172 5.14389 1.58174 4.11282 2.61281C3.08174 3.64389 2.50172 5.04184 2.5 6.5C2.49866 7.69155 2.88786 8.8507 3.608 9.8C3.608 9.8 3.758 9.9975 3.7825 10.026L8 15L12.2195 10.0235C12.2415 9.997 12.392 9.8 12.392 9.8L12.3925 9.7985C13.1122 8.84954 13.5012 7.69098 13.5 6.5C13.4983 5.04184 12.9183 3.64389 11.8872 2.61281C10.8561 1.58174 9.45817 1.00172 8 1ZM8 8.5C7.60444 8.5 7.21776 8.3827 6.88886 8.16294C6.55996 7.94318 6.30362 7.63082 6.15224 7.26537C6.00087 6.89991 5.96126 6.49778 6.03843 6.10982C6.1156 5.72186 6.30608 5.36549 6.58579 5.08579C6.86549 4.80608 7.22186 4.6156 7.60982 4.53843C7.99778 4.46126 8.39992 4.50087 8.76537 4.65224C9.13082 4.80362 9.44318 5.05996 9.66294 5.38886C9.88271 5.71776 10 6.10444 10 6.5C9.99934 7.03023 9.78842 7.53855 9.41349 7.91348C9.03856 8.28841 8.53023 8.49934 8 8.5Z" fill="#D1D1D1"/>
</svg>
