<svg width="24" height="24" viewBox="0 0 24 24" fill="none" xmlns="http://www.w3.org/2000/svg">
<path d="M19 21C18.35 21 17.7667 20.8127 17.25 20.438C16.7333 20.0633 16.375 19.584 16.175 19H11C9.9 19 8.95833 18.6083 8.175 17.825C7.39167 17.0417 7 16.1 7 15C7 13.9 7.39167 12.9583 8.175 12.175C8.95833 11.3917 9.9 11 11 11H13C13.55 11 14.021 10.8043 14.413 10.413C14.805 10.0217 15.0007 9.55067 15 9C14.9993 8.44933 14.8037 7.97867 14.413 7.588C14.0223 7.19733 13.5513 7.00133 13 7H7.825C7.60833 7.58333 7.24567 8.06267 6.737 8.438C6.22833 8.81333 5.64933 9.00067 5 9C4.16667 9 3.45833 8.70833 2.875 8.125C2.29167 7.54167 2 6.83333 2 6C2 5.16667 2.29167 4.45833 2.875 3.875C3.45833 3.29167 4.16667 3 5 3C5.65 3 6.22933 3.18767 6.738 3.563C7.24667 3.93833 7.609 4.41733 7.825 5H13C14.1 5 15.0417 5.39167 15.825 6.175C16.6083 6.95833 17 7.9 17 9C17 10.1 16.6083 11.0417 15.825 11.825C15.0417 12.6083 14.1 13 13 13H11C10.45 13 9.97933 13.196 9.588 13.588C9.19667 13.98 9.00067 14.4507 9 15C8.99933 15.5493 9.19533 16.0203 9.588 16.413C9.98067 16.8057 10.4513 17.0013 11 17H16.175C16.3917 16.4167 16.7543 15.9377 17.263 15.563C17.7717 15.1883 18.3507 15.0007 19 15C19.8333 15 20.5417 15.2917 21.125 15.875C21.7083 16.4583 22 17.1667 22 18C22 18.8333 21.7083 19.5417 21.125 20.125C20.5417 20.7083 19.8333 21 19 21ZM5 7C5.28333 7 5.521 6.904 5.713 6.712C5.905 6.52 6.00067 6.28267 6 6C5.99933 5.71733 5.90333 5.48 5.712 5.288C5.52067 5.096 5.28333 5 5 5C4.71667 5 4.47933 5.096 4.288 5.288C4.09667 5.48 4.00067 5.71733 4 6C3.99933 6.28267 4.09533 6.52033 4.288 6.713C4.48067 6.90567 4.718 7.00133 5 7Z" fill="#D1D1D1"/>
</svg>
