<svg width="77" height="18" viewBox="0 0 77 18" fill="none" xmlns="http://www.w3.org/2000/svg">
<path d="M0.629 15V4.409H3.859C4.49367 4.409 5.04333 4.477 5.508 4.613C5.97267 4.73767 6.358 4.919 6.664 5.157C6.98133 5.38367 7.21367 5.66133 7.361 5.99C7.51967 6.31867 7.599 6.68133 7.599 7.078C7.599 7.37267 7.54233 7.673 7.429 7.979C7.31567 8.285 7.14567 8.56267 6.919 8.812C6.69233 9.05 6.42033 9.237 6.103 9.373C6.38633 9.49767 6.647 9.65067 6.885 9.832C7.123 10.0133 7.327 10.2173 7.497 10.444C7.667 10.6593 7.79167 10.8973 7.871 11.158C7.96167 11.4073 8.007 11.668 8.007 11.94C8.007 12.3933 7.922 12.8127 7.752 13.198C7.582 13.572 7.32133 13.895 6.97 14.167C6.63 14.4277 6.19933 14.6317 5.678 14.779C5.15667 14.9263 4.54467 15 3.842 15H0.629ZM2.55 13.419H4.046C4.454 13.419 4.80533 13.3623 5.1 13.249C5.39467 13.1243 5.62133 12.9487 5.78 12.722C5.93867 12.4953 6.018 12.2177 6.018 11.889C6.018 11.549 5.94433 11.2543 5.797 11.005C5.64967 10.7443 5.41167 10.5403 5.083 10.393C4.75433 10.2457 4.31233 10.172 3.757 10.172H2.55V13.419ZM2.55 8.642H3.706C4.20467 8.642 4.59567 8.58533 4.879 8.472C5.16233 8.34733 5.36067 8.183 5.474 7.979C5.59867 7.76367 5.661 7.52 5.661 7.248C5.661 7.05533 5.627 6.87967 5.559 6.721C5.491 6.56233 5.38333 6.432 5.236 6.33C5.1 6.21667 4.91867 6.126 4.692 6.058C4.46533 5.99 4.19333 5.956 3.876 5.956H2.55V8.642ZM9.928 15V13.487H11.866V8.608H10.03V7.095H13.804V13.487H15.572V15H9.928ZM12.75 5.786C12.4213 5.786 12.138 5.67267 11.9 5.446C11.662 5.21933 11.543 4.94733 11.543 4.63C11.543 4.29 11.6563 4.01233 11.883 3.797C12.1097 3.58167 12.3987 3.474 12.75 3.474C13.0673 3.474 13.345 3.58733 13.583 3.814C13.8323 4.04067 13.957 4.31267 13.957 4.63C13.957 4.94733 13.8323 5.21933 13.583 5.446C13.345 5.67267 13.0673 5.786 12.75 5.786ZM17.935 15V7.095H19.856V8.183C20.0487 7.93367 20.2583 7.71267 20.485 7.52C20.7117 7.32733 20.961 7.18 21.233 7.078C21.5163 6.96467 21.8167 6.908 22.134 6.908C22.5987 6.908 23.0237 7.02133 23.409 7.248C23.7943 7.46333 24.106 7.81467 24.344 8.302C24.582 8.78933 24.701 9.42967 24.701 10.223V15H22.78V10.257C22.78 9.815 22.7347 9.458 22.644 9.186C22.5533 8.914 22.4173 8.71567 22.236 8.591C22.066 8.455 21.862 8.387 21.624 8.387C21.4087 8.387 21.1933 8.43233 20.978 8.523C20.774 8.60233 20.587 8.727 20.417 8.897C20.247 9.067 20.111 9.271 20.009 9.509C19.907 9.73567 19.856 9.99633 19.856 10.291V15H17.935ZM26.622 15V4.409H33.218V5.956H28.339V8.523H32.3V10.07H28.339V15H26.622ZM35.428 15V13.487H37.366V8.608H35.53V7.095H39.304V13.487H41.072V15H35.428ZM38.25 5.786C37.9213 5.786 37.638 5.67267 37.4 5.446C37.162 5.21933 37.043 4.94733 37.043 4.63C37.043 4.29 37.1563 4.01233 37.383 3.797C37.6097 3.58167 37.8987 3.474 38.25 3.474C38.5673 3.474 38.845 3.58733 39.083 3.814C39.3323 4.04067 39.457 4.31267 39.457 4.63C39.457 4.94733 39.3323 5.21933 39.083 5.446C38.845 5.67267 38.5673 5.786 38.25 5.786ZM43.435 15V7.095H45.356V8.183C45.5487 7.93367 45.7583 7.71267 45.985 7.52C46.2117 7.32733 46.461 7.18 46.733 7.078C47.0163 6.96467 47.3167 6.908 47.634 6.908C48.0987 6.908 48.5237 7.02133 48.909 7.248C49.2943 7.46333 49.606 7.81467 49.844 8.302C50.082 8.78933 50.201 9.42967 50.201 10.223V15H48.28V10.257C48.28 9.815 48.2347 9.458 48.144 9.186C48.0533 8.914 47.9173 8.71567 47.736 8.591C47.566 8.455 47.362 8.387 47.124 8.387C46.9087 8.387 46.6933 8.43233 46.478 8.523C46.274 8.60233 46.087 8.727 45.917 8.897C45.747 9.067 45.611 9.271 45.509 9.509C45.407 9.73567 45.356 9.99633 45.356 10.291V15H43.435ZM54.842 15.187C54.4 15.187 53.9807 15.102 53.584 14.932C53.1987 14.762 52.853 14.5013 52.547 14.15C52.241 13.7987 51.9973 13.3623 51.816 12.841C51.646 12.3197 51.561 11.7077 51.561 11.005C51.561 10.325 51.646 9.73 51.816 9.22C51.986 8.69867 52.2183 8.268 52.513 7.928C52.819 7.57667 53.1703 7.316 53.567 7.146C53.9637 6.976 54.3943 6.891 54.859 6.891C55.1197 6.891 55.369 6.925 55.607 6.993C55.8563 7.061 56.0773 7.163 56.27 7.299C56.474 7.42367 56.6383 7.59933 56.763 7.826V3.593H58.65H58.82V3.746C58.752 3.814 58.7067 3.88767 58.684 3.967C58.6727 4.04633 58.667 4.18233 58.667 4.375L58.65 13.946C58.65 14.1273 58.6613 14.303 58.684 14.473C58.7067 14.643 58.7577 14.8187 58.837 15H56.95C56.8933 14.8753 56.8537 14.7733 56.831 14.694C56.8083 14.6147 56.7913 14.5353 56.78 14.456C56.78 14.3653 56.78 14.2577 56.78 14.133C56.644 14.371 56.474 14.5693 56.27 14.728C56.066 14.8867 55.845 15 55.607 15.068C55.369 15.1473 55.114 15.187 54.842 15.187ZM55.165 13.64C55.4257 13.64 55.6523 13.589 55.845 13.487C56.049 13.3737 56.2133 13.2093 56.338 12.994C56.474 12.7787 56.5703 12.5067 56.627 12.178C56.695 11.838 56.729 11.4527 56.729 11.022C56.729 10.4327 56.6723 9.94533 56.559 9.56C56.4457 9.16333 56.27 8.86867 56.032 8.676C55.794 8.48333 55.488 8.387 55.114 8.387C54.8533 8.387 54.6153 8.44933 54.4 8.574C54.1847 8.68733 54.009 8.85733 53.873 9.084C53.737 9.31067 53.6293 9.58267 53.55 9.9C53.482 10.2173 53.448 10.5743 53.448 10.971C53.448 11.5263 53.5217 12.0023 53.669 12.399C53.8277 12.7957 54.0373 13.1017 54.298 13.317C54.5587 13.5323 54.8477 13.64 55.165 13.64ZM64.107 15.187C63.5403 15.187 63.0133 15.0963 62.526 14.915C62.05 14.7337 61.6307 14.473 61.268 14.133C60.9167 13.7817 60.6447 13.351 60.452 12.841C60.2593 12.331 60.163 11.753 60.163 11.107C60.163 10.4497 60.2593 9.86033 60.452 9.339C60.6447 8.81767 60.9053 8.37567 61.234 8.013C61.574 7.65033 61.9707 7.37833 62.424 7.197C62.8773 7.00433 63.3647 6.908 63.886 6.908C64.3507 6.908 64.787 6.98733 65.195 7.146C65.603 7.30467 65.96 7.54833 66.266 7.877C66.5833 8.19433 66.8327 8.59667 67.014 9.084C67.1953 9.56 67.286 10.1153 67.286 10.75C67.286 10.8633 67.2803 10.9993 67.269 11.158C67.269 11.3167 67.2633 11.4527 67.252 11.566H62.016C62.0387 11.94 62.1123 12.263 62.237 12.535C62.3617 12.7957 62.526 13.011 62.73 13.181C62.934 13.351 63.1607 13.4813 63.41 13.572C63.6593 13.6513 63.92 13.691 64.192 13.691C64.43 13.691 64.6567 13.6683 64.872 13.623C65.0987 13.5777 65.3083 13.4983 65.501 13.385C65.705 13.2717 65.8977 13.1243 66.079 12.943L67.065 13.895C66.8157 14.1897 66.5323 14.439 66.215 14.643C65.909 14.8357 65.5747 14.9717 65.212 15.051C64.8607 15.1417 64.4923 15.187 64.107 15.187ZM62.05 10.121H65.416C65.416 9.849 65.3763 9.60533 65.297 9.39C65.229 9.17467 65.127 8.99333 64.991 8.846C64.855 8.69867 64.685 8.591 64.481 8.523C64.2883 8.44367 64.0617 8.404 63.801 8.404C63.5857 8.404 63.376 8.438 63.172 8.506C62.9793 8.56267 62.8037 8.66467 62.645 8.812C62.4863 8.95933 62.356 9.14067 62.254 9.356C62.152 9.57133 62.084 9.82633 62.05 10.121ZM69.513 7.095H71.502L71.485 9.305L71.264 9.169C71.3093 8.81767 71.4057 8.506 71.553 8.234C71.7117 7.962 71.9043 7.724 72.131 7.52C72.369 7.316 72.624 7.163 72.896 7.061C73.1793 6.959 73.4683 6.908 73.763 6.908C74.205 6.908 74.6017 6.98167 74.953 7.129C75.3157 7.265 75.65 7.49167 75.956 7.809L75.14 9.424L75.089 9.56L74.936 9.492C74.902 9.40133 74.868 9.31067 74.834 9.22C74.8 9.118 74.715 9.00467 74.579 8.88C74.4203 8.75533 74.2503 8.659 74.069 8.591C73.899 8.523 73.712 8.489 73.508 8.489C73.236 8.489 72.9753 8.53433 72.726 8.625C72.4767 8.71567 72.2557 8.85733 72.063 9.05C71.8817 9.24267 71.7343 9.492 71.621 9.798C71.519 10.0927 71.468 10.444 71.468 10.852V15H69.513V7.095Z" fill="#3E3C3C"/>
</svg>
