<svg width="24" height="24" viewBox="0 0 24 24" fill="none" xmlns="http://www.w3.org/2000/svg">
<path d="M12.0769 19C10.1229 19 8.46757 18.3223 7.1109 16.967C5.7549 15.611 5.0769 13.9563 5.0769 12.003C5.0769 10.0497 5.7549 8.39433 7.1109 7.037C8.4669 5.67967 10.1222 5.00067 12.0769 5C13.2656 5 14.3786 5.28233 15.4159 5.847C16.4526 6.41167 17.2882 7.2 17.9229 8.212V5H18.9229V10.23H13.6929V9.23H17.3929C16.8716 8.23333 16.1389 7.44567 15.1949 6.867C14.2509 6.28833 13.2116 5.99933 12.0769 6C10.4102 6 8.99357 6.58333 7.8269 7.75C6.66024 8.91667 6.0769 10.3333 6.0769 12C6.0769 13.6667 6.66024 15.0833 7.8269 16.25C8.99357 17.4167 10.4102 18 12.0769 18C13.3602 18 14.5186 17.6333 15.5519 16.9C16.5852 16.1667 17.3102 15.2 17.7269 14H18.7889C18.3476 15.4973 17.5096 16.705 16.2749 17.623C15.0402 18.541 13.6409 19 12.0769 19Z" fill="black"/>
</svg>
