<svg width="29" height="34" viewBox="0 0 29 34" fill="none" xmlns="http://www.w3.org/2000/svg">
<path d="M24.7526 4.24648C27.4722 6.96751 29 10.6572 29 14.5043C29 18.3514 27.4722 22.0411 24.7526 24.7621L22.416 27.0697L17.37 31.979C16.6456 32.6807 15.6895 33.0929 14.682 33.1379C13.6746 33.183 12.6854 32.8577 11.9014 32.2235L11.6279 31.979L7.39597 27.8672L4.24737 24.7621C1.52775 22.0411 0 18.3514 0 14.5043C0 10.6572 1.52775 6.96751 4.24737 4.24648C6.96663 1.52749 10.6546 0 14.5 0C18.3454 0 22.0334 1.52749 24.7526 4.24648Z" fill="#188FFF"/>
<circle cx="14.5002" cy="14.5002" r="10.3572" fill="white"/>
<path fill-rule="evenodd" clip-rule="evenodd" d="M13.3649 8.06182H15.6356C15.7814 8.06182 15.9084 8.06182 16.028 8.08063C16.2609 8.11795 16.4818 8.20926 16.6732 8.34727C16.8645 8.48527 17.0208 8.66614 17.1297 8.8754C17.1862 8.98289 17.2258 9.10314 17.2722 9.24087L17.3467 9.46593L17.3669 9.52303C17.4277 9.69176 17.5409 9.8366 17.69 9.93633C17.839 10.0361 18.0161 10.0855 18.1952 10.0773H20.2107C20.3443 10.0773 20.4725 10.1304 20.567 10.2249C20.6615 10.3194 20.7146 10.4475 20.7146 10.5811C20.7146 10.7148 20.6615 10.8429 20.567 10.9374C20.4725 11.0319 20.3443 11.085 20.2107 11.085H8.78975C8.65612 11.085 8.52796 11.0319 8.43347 10.9374C8.33897 10.8429 8.28589 10.7148 8.28589 10.5811C8.28589 10.4475 8.33897 10.3194 8.43347 10.2249C8.52796 10.1304 8.65612 10.0773 8.78975 10.0773H10.8657C11.0451 10.073 11.2185 10.0113 11.3603 9.90127C11.5021 9.79124 11.605 9.63867 11.6537 9.46593L11.729 9.24087C11.7747 9.10314 11.8143 8.98289 11.8701 8.8754C11.979 8.66606 12.1355 8.48514 12.3269 8.34713C12.5184 8.20912 12.7395 8.11785 12.9725 8.08063C13.0921 8.06182 13.2191 8.06182 13.3642 8.06182M12.4895 10.0773C12.536 9.9846 12.5753 9.88847 12.607 9.78974L12.6742 9.5882C12.7354 9.40479 12.7495 9.36784 12.7636 9.34097C12.7998 9.2711 12.852 9.21071 12.9158 9.16463C12.9796 9.11854 13.0533 9.08805 13.1311 9.0756C13.2186 9.06784 13.3066 9.06582 13.3944 9.06955H15.6047C15.7982 9.06955 15.8385 9.0709 15.8681 9.07627C15.9457 9.08865 16.0194 9.11904 16.0832 9.165C16.147 9.21097 16.1992 9.27123 16.2355 9.34097C16.2497 9.36784 16.2638 9.40479 16.3249 9.58887L16.3921 9.79042L16.4183 9.86566C16.4447 9.93911 16.4752 10.0097 16.5096 10.0773H12.4895Z" fill="#188FFF"/>
<path d="M10.4123 12.2273C10.4034 12.0939 10.3419 11.9695 10.2413 11.8815C10.1407 11.7935 10.0092 11.7491 9.87584 11.758C9.74248 11.7669 9.61811 11.8284 9.53011 11.929C9.4421 12.0296 9.39767 12.1611 9.40658 12.2944L9.7183 16.9649C9.77541 17.8262 9.82176 18.5222 9.9306 19.0691C10.0441 19.6368 10.2363 20.1111 10.634 20.4826C11.0317 20.8541 11.5174 21.0154 12.0918 21.0899C12.6441 21.1625 13.3414 21.1625 14.2054 21.1625H14.7959C15.6592 21.1625 16.3572 21.1625 16.9095 21.0899C17.4832 21.0154 17.9696 20.8548 18.3673 20.4826C18.7644 20.1111 18.9565 19.6361 19.0701 19.0691C19.1789 18.5229 19.2246 17.8262 19.2823 16.9649L19.5941 12.2944C19.603 12.1611 19.5585 12.0296 19.4705 11.929C19.3825 11.8284 19.2582 11.7669 19.1248 11.758C18.9914 11.7491 18.86 11.7935 18.7594 11.8815C18.6588 11.9695 18.5973 12.0939 18.5884 12.2273L18.2793 16.8628C18.2189 17.7678 18.1759 18.3979 18.0818 18.8716C17.9898 19.3318 17.8621 19.575 17.6787 19.747C17.4946 19.9189 17.2434 20.0305 16.7785 20.0909C16.2995 20.1534 15.6679 20.1547 14.7603 20.1547H14.2403C13.3334 20.1547 12.7019 20.1534 12.2222 20.0909C11.7573 20.0305 11.506 19.9189 11.3219 19.747C11.1385 19.575 11.0109 19.3318 10.9188 18.8722C10.8248 18.3979 10.7818 17.7678 10.7213 16.8622L10.4123 12.2273Z" fill="#188FFF"/>
<path d="M12.7702 13.4389C12.9031 13.4256 13.0359 13.4656 13.1393 13.5501C13.2427 13.6346 13.3084 13.7568 13.3218 13.8897L13.6577 17.2488C13.6675 17.3799 13.6258 17.5096 13.5413 17.6103C13.4569 17.711 13.3364 17.7747 13.2056 17.7879C13.0749 17.801 12.9441 17.7625 12.8413 17.6807C12.7385 17.5988 12.6718 17.48 12.6553 17.3496L12.3194 13.9905C12.3061 13.8576 12.3461 13.7248 12.4306 13.6214C12.5152 13.5179 12.6373 13.4523 12.7702 13.4389ZM16.2301 13.4389C16.3629 13.4523 16.4849 13.5178 16.5694 13.6211C16.6539 13.7244 16.694 13.857 16.6809 13.9898L16.345 17.3489C16.3283 17.479 16.2615 17.5976 16.1588 17.6792C16.0562 17.7609 15.9257 17.7993 15.7951 17.7863C15.6645 17.7733 15.5442 17.7098 15.4597 17.6094C15.3752 17.509 15.3332 17.3797 15.3426 17.2488L15.6785 13.8897C15.6919 13.7569 15.7575 13.6349 15.8607 13.5504C15.964 13.4659 16.0973 13.4258 16.2301 13.4389Z" fill="#188FFF"/>
</svg>
